<svg width="191" height="51" viewBox="0 0 191 51" fill="none" xmlns="http://www.w3.org/2000/svg">
<path d="M102.05 7.19306V8.97164C101.082 9.00671 100.402 9.14198 100.016 9.36744C99.6259 9.5979 99.4332 9.97366 99.4332 10.5047V27.6192H97.2117L86.1146 12.614V23.9769C86.1146 24.563 86.287 24.9588 86.6268 25.1693C86.9667 25.3797 87.6615 25.5049 88.7063 25.54V27.3486H80.6269V25.54C81.6311 25.5049 82.3107 25.3897 82.6607 25.1993C83.0106 25.0089 83.1881 24.6282 83.1881 24.062V12.5589C83.1881 11.9025 83.178 11.4366 83.1577 11.161C83.1374 10.8855 83.0918 10.5849 83.0157 10.2592C82.9396 9.92857 82.8027 9.70812 82.6049 9.58788C82.4071 9.46764 82.1484 9.35241 81.834 9.23216C81.5195 9.11192 81.0884 9.01673 80.5406 8.94659V7.19306H85.4908L96.5017 22.063V10.5598C96.5017 9.9937 96.3546 9.60291 96.0604 9.38247C95.7663 9.16202 95.0867 9.03677 94.0266 8.99669V7.18805H102.05V7.19306Z" fill="#7D4717"/>
<path d="M120.116 17.2734C120.116 18.2754 120.02 19.2674 119.832 20.2443C119.644 21.2213 119.32 22.1732 118.863 23.1051C118.407 24.037 117.854 24.8536 117.2 25.555C116.546 26.2564 115.709 26.8226 114.694 27.2535C113.68 27.6843 112.544 27.8998 111.291 27.8998C110.038 27.8998 108.877 27.7044 107.863 27.3086C106.848 26.9178 106.006 26.3867 105.347 25.7204C104.683 25.054 104.125 24.2624 103.668 23.3506C103.212 22.4388 102.892 21.4768 102.699 20.4598C102.507 19.4477 102.415 18.3806 102.415 17.2683C102.415 15.9908 102.583 14.7533 102.912 13.5559C103.242 12.3585 103.744 11.2312 104.409 10.1741C105.073 9.11693 105.996 8.26522 107.183 7.62894C108.37 6.99265 109.739 6.67201 111.296 6.67201C112.493 6.67201 113.604 6.87742 114.639 7.28825C115.673 7.69908 116.606 8.31532 117.443 9.13697C118.28 9.95863 118.934 11.0659 119.406 12.4637C119.878 13.8615 120.116 15.4647 120.116 17.2683V17.2734ZM116.718 20.3496C116.901 19.4077 116.987 18.3756 116.987 17.2433C116.987 16.111 116.89 15.0689 116.703 14.122C116.515 13.1751 116.206 12.3033 115.78 11.5067C115.354 10.7101 114.76 10.0889 113.999 9.63297C113.239 9.17705 112.341 8.94659 111.296 8.94659C110.196 8.94659 109.252 9.18206 108.466 9.65802C107.68 10.134 107.081 10.7903 106.676 11.632C106.27 12.4737 105.981 13.3505 105.808 14.2623C105.636 15.1741 105.55 16.1711 105.55 17.2483C105.55 18.7463 105.732 20.094 106.092 21.3015C106.453 22.5089 107.081 23.5259 107.984 24.3526C108.887 25.1843 109.998 25.6001 111.327 25.6001C112.387 25.6001 113.3 25.3697 114.06 24.9037C114.821 24.4378 115.404 23.8015 115.825 22.9849C116.241 22.1732 116.54 21.2965 116.723 20.3546L116.718 20.3496Z" fill="#7D4717"/>
<path d="M138.299 21.1612C138.299 23.0951 137.578 24.6131 136.138 25.7053C134.698 26.8025 132.486 27.3486 129.509 27.3486H121.146V25.5951C122.358 25.5049 123.088 25.3346 123.337 25.0891C123.585 24.8436 123.707 24.1973 123.707 23.1602V11.3564C123.707 10.3143 123.565 9.68307 123.281 9.45261C122.997 9.22715 122.256 9.06683 121.059 8.97164V7.19306H130.848C132.572 7.19306 134.064 7.58885 135.316 8.38546C136.569 9.18206 137.193 10.3895 137.193 12.0128C137.193 12.9446 136.894 13.7863 136.295 14.5479C135.697 15.3044 134.982 15.9206 134.145 16.3966C135.398 16.8325 136.402 17.4888 137.163 18.3555C137.923 19.2223 138.299 20.1592 138.299 21.1612ZM134.059 12.2332C134.059 11.3013 133.704 10.5999 132.993 10.124C132.283 9.648 131.345 9.41253 130.189 9.41253H128.226C127.638 9.41253 127.222 9.52275 126.973 9.74319C126.725 9.96364 126.603 10.3093 126.603 10.7853V15.5749H130.047C131.127 15.5749 132.065 15.2593 132.862 14.628C133.658 13.9968 134.059 13.2002 134.059 12.2332ZM135.058 21.3516C135.058 18.9768 133.369 17.7894 129.991 17.7894H126.603V23.1302C126.603 23.9518 126.755 24.4879 127.059 24.7334C127.364 24.9789 127.886 25.1041 128.627 25.1041H130.62C133.577 25.1041 135.058 23.8516 135.058 21.3516Z" fill="#7D4717"/>
<path d="M156.537 21.8726L155.228 27.3486H139.891V25.5951C141.103 25.5049 141.834 25.3346 142.082 25.0891C142.331 24.8436 142.452 24.1823 142.452 23.1051V11.4116C142.452 10.3695 142.316 9.73317 142.042 9.49269C141.768 9.25721 141.022 9.09188 139.81 9.0017V7.19306H147.864V9.0017C146.687 9.07685 145.977 9.22715 145.729 9.45261C145.48 9.68307 145.359 10.3344 145.359 11.4116V22.7193C145.318 23.6312 145.445 24.2624 145.729 24.6081C146.013 24.9538 146.505 25.1292 147.21 25.1292H150.821C151.653 25.1292 152.327 24.9889 152.84 24.7033C153.352 24.4177 153.747 24.057 154.037 23.6061C154.321 23.1602 154.655 22.4588 155.031 21.5119L156.537 21.8676V21.8726Z" fill="#7D4717"/>
<path d="M174.496 21.7624L173.299 27.3486H157.993V25.5701C159.205 25.4949 159.935 25.3296 160.184 25.064C160.432 24.7985 160.554 24.1572 160.554 23.1352V11.4717C160.554 10.3745 160.412 9.70311 160.128 9.45762C159.844 9.21212 159.103 9.03176 157.906 8.92655V7.20308H173.812L174.096 12.4035L172.757 12.5388C172.417 11.3514 172.082 10.5398 171.763 10.1039C171.438 9.648 170.479 9.41754 168.887 9.41754H164.474C164.059 9.41754 163.78 9.47265 163.648 9.58287C163.516 9.69309 163.45 9.91354 163.45 10.2392V15.7703H168.091C169.247 15.7703 169.967 15.6551 170.251 15.4296C170.535 15.1992 170.774 14.5779 170.961 13.5559H172.326V20.2944H170.961C170.774 19.1972 170.535 18.5409 170.251 18.3205C169.967 18.1 169.247 17.9898 168.091 17.9898H163.45V22.9448C163.45 23.8215 163.653 24.4077 164.064 24.6983C164.469 24.9889 165.139 25.1392 166.072 25.1392H168.207C169.176 25.1192 169.901 25.059 170.383 24.9638C170.865 24.8636 171.271 24.6382 171.59 24.2925C172.158 23.7063 172.645 22.8045 173.041 21.582L174.491 21.7724L174.496 21.7624Z" fill="#7D4717"/>
<path d="M191 21.7624C191 23.4959 190.214 24.9538 188.637 26.1312C187.064 27.3086 185.107 27.8998 182.774 27.8998C181.237 27.8998 179.446 27.504 177.397 26.7224L176.175 21.2464L177.768 20.8656C177.976 21.5069 178.204 22.058 178.452 22.5239C178.701 22.9899 179.036 23.4708 179.462 23.9769C179.888 24.4779 180.446 24.8687 181.125 25.1392C181.81 25.4148 182.596 25.55 183.489 25.55C184.777 25.55 185.812 25.2494 186.593 24.6482C187.369 24.047 187.759 23.2053 187.759 22.1281C187.759 21.7073 187.653 21.3265 187.445 20.9758C187.237 20.6301 186.897 20.2995 186.435 19.9888C185.969 19.6782 185.538 19.4227 185.142 19.2223C184.746 19.0219 184.194 18.7664 183.494 18.4557C183.154 18.2754 182.672 18.0549 182.058 17.7994C181.44 17.5439 180.912 17.3235 180.466 17.1431C180.02 16.9627 179.538 16.7122 179.015 16.4016C178.493 16.091 178.062 15.7653 177.722 15.4296C177.382 15.094 177.098 14.6631 176.87 14.1421C176.642 13.621 176.53 13.0499 176.53 12.4286C176.53 10.7101 177.215 9.32235 178.579 8.2552C179.943 7.18805 181.815 6.65197 184.183 6.65197C185.624 6.65197 187.313 7.02773 189.25 7.77423L189.904 12.7292L188.368 13.0048C188.18 12.4036 187.982 11.9025 187.784 11.4967C187.587 11.0959 187.308 10.6801 186.943 10.2492C186.582 9.81834 186.116 9.4977 185.548 9.27725C184.98 9.05681 184.315 8.94659 183.555 8.94659C182.246 8.94659 181.242 9.22715 180.537 9.79329C179.837 10.3594 179.482 11.1059 179.482 12.0378C179.482 12.5288 179.7 12.9947 180.136 13.4356C180.572 13.8715 181.019 14.2072 181.475 14.4376C181.932 14.6681 182.586 14.9537 183.438 15.2994C184.29 15.6451 184.853 15.8856 185.117 16.0108C185.746 16.3014 186.212 16.5218 186.527 16.6671C186.841 16.8124 187.277 17.0379 187.835 17.3385C188.393 17.6391 188.819 17.9247 189.113 18.1852C189.407 18.4507 189.727 18.7714 190.067 19.1421C190.407 19.5179 190.65 19.9187 190.792 20.3496C190.934 20.7804 191.005 21.2464 191.005 21.7574L191 21.7624Z" fill="#7D4717"/>
<path d="M93.4484 38.2306V39.2476H90.3597V41.8829H94.3309V42.8799H85.1205V41.8829H89.0917V39.2476H86.1044V34.2726H87.3774V38.2306H93.4535H93.4484Z" fill="#7D4717"/>
<path d="M95.9995 39.3127V38.3508H105.418V39.3127H95.9995ZM103.095 34.0371H104.333V37.6744H97.09V34.0371H98.3275V34.8938H103.1V34.0371H103.095ZM97.1001 40.8859V39.9941H104.287V42.3889H98.3579V43.0803H104.571V43.9721H97.1001V41.5072H103.029V40.8859H97.1001ZM98.3224 36.7726H103.095V35.8107H98.3224V36.7726Z" fill="#7D4717"/>
<path d="M107.087 41.7577H116.297V42.7647H107.087V41.7577ZM112.336 34.2275V35.1193C112.336 35.9109 112.65 36.6624 113.284 37.3788C113.918 38.0953 114.892 38.6614 116.201 39.0723L115.582 39.9089C114.857 39.7737 114.101 39.423 113.31 38.8618C112.518 38.3007 111.981 37.7095 111.692 37.0832C111.393 37.7145 110.86 38.3107 110.084 38.8668C109.308 39.423 108.557 39.7737 107.822 39.919L107.203 39.0823C108.507 38.6815 109.475 38.1203 110.104 37.3989C110.733 36.6774 111.048 35.9159 111.048 35.1143V34.2225H112.331L112.336 34.2275Z" fill="#7D4717"/>
<path d="M122.566 34.2425H127.212C127.277 35.465 126.928 36.5121 126.152 37.3939C125.376 38.2756 124.163 38.8318 122.505 39.0572L121.977 38.1855C122.596 38.1053 123.139 37.975 123.616 37.7947C124.087 37.6193 124.463 37.4239 124.736 37.2135C125.01 37.0031 125.234 36.7676 125.411 36.5121C125.583 36.2566 125.705 36.0261 125.766 35.8157C125.827 35.6103 125.862 35.4049 125.868 35.1995H122.561V34.2375L122.566 34.2425ZM123.859 40.3799V39.453H130.676V42.1334H125.092V43.0503H130.96V43.9771H123.854V41.2216H129.438V40.3849H123.854L123.859 40.3799ZM127.414 36.0712V35.0542H129.453V34.0121H130.676V38.962H129.453V38.0602H127.277V37.0532H129.453V36.0712H127.414Z" fill="#7D4717"/>
<path d="M134.292 37.2937C134.292 36.7877 134.571 36.3818 135.129 36.0762C135.687 35.7706 136.529 35.6203 137.66 35.6203C138.791 35.6203 139.632 35.7706 140.195 36.0762C140.753 36.3818 141.037 36.7877 141.037 37.2937C141.037 37.7546 140.809 38.1304 140.358 38.431C139.901 38.7316 139.217 38.9069 138.304 38.967V39.7236H142.376V40.6955H132.963V39.7236H137.036V38.9771C136.123 38.9169 135.438 38.7366 134.982 38.436C134.53 38.1354 134.302 37.7546 134.302 37.2937H134.292ZM133.698 35.3347V34.3728H137.005V33.5261H138.319V34.3728H141.626V35.3347H133.698ZM141.504 42.9751V43.937H134.16V41.2266H135.428V42.9801H141.504V42.9751ZM135.585 37.2937C135.585 37.8348 136.275 38.1053 137.654 38.1053C139.034 38.1053 139.739 37.8348 139.739 37.2937C139.739 36.7526 139.044 36.5021 137.654 36.5021C136.924 36.5021 136.397 36.5772 136.072 36.7225C135.747 36.8678 135.585 37.0582 135.585 37.2937Z" fill="#7D4717"/>
<path d="M144.385 35.2145V34.2425H149.878V35.2145H147.717V35.4199C147.717 36.0512 147.91 36.6323 148.3 37.1634C148.691 37.6945 149.35 38.1955 150.278 38.6614L149.639 39.463C149.183 39.3027 148.701 39.0071 148.199 38.5763C147.697 38.1454 147.332 37.6995 147.098 37.2486C146.911 37.7596 146.54 38.2706 145.987 38.7817C145.44 39.2877 144.912 39.6434 144.41 39.8388L143.7 39.0823C144.654 38.6464 145.348 38.0953 145.795 37.4339C146.236 36.7726 146.459 36.0963 146.459 35.4099V35.2195H144.39L144.385 35.2145ZM145.916 42.0633C145.916 41.422 146.231 40.9009 146.865 40.5001C147.499 40.0993 148.321 39.8939 149.335 39.8939C150.349 39.8939 151.186 40.0943 151.82 40.5001C152.454 40.9009 152.769 41.427 152.769 42.0633C152.769 42.6996 152.454 43.2006 151.82 43.6064C151.186 44.0072 150.359 44.2126 149.335 44.2126C148.31 44.2126 147.499 44.0122 146.865 43.6064C146.231 43.2056 145.916 42.6895 145.916 42.0633ZM147.154 42.0633C147.154 42.409 147.357 42.6996 147.768 42.93C148.179 43.1605 148.701 43.2757 149.34 43.2757C149.979 43.2757 150.517 43.1605 150.922 42.93C151.333 42.6996 151.536 42.409 151.536 42.0633C151.536 41.7176 151.333 41.437 150.922 41.1965C150.517 40.9611 149.984 40.8408 149.34 40.8408C148.696 40.8408 148.173 40.9611 147.768 41.1965C147.362 41.432 147.154 41.7226 147.154 42.0633ZM149.34 37.0782V36.0361H151.455V34.0121H152.687V39.8989H151.455V37.0732H149.34V37.0782Z" fill="#7D4717"/>
<path d="M162.014 34.2626H163.252V39.924H160.265V41.8779H164.236V42.8749H155.026V41.8779H158.997V39.924H156.009V34.2626H157.247V36.0161H162.02V34.2626H162.014ZM157.242 38.942H162.014V37.0081H157.242V38.942Z" fill="#7D4717"/>
<path d="M166.67 38.2506C166.67 37.6794 166.904 37.1935 167.375 36.7927C167.842 36.3919 168.481 36.1915 169.282 36.1915C170.084 36.1915 170.713 36.3919 171.189 36.7927C171.666 37.1935 171.905 37.6794 171.905 38.2506C171.905 38.7416 171.727 39.1725 171.372 39.5532C171.017 39.929 170.535 40.1695 169.927 40.2747V41.2917H172.924V42.2837H165.91V41.2917H168.689V40.2847C168.065 40.1845 167.573 39.949 167.213 39.5683C166.853 39.1875 166.676 38.7516 166.676 38.2506H166.67ZM166.158 35.8808V34.9089H168.628V33.8367H169.886V34.9089H172.31V35.8808H166.153H166.158ZM168.268 37.439C168.004 37.6644 167.872 37.935 167.872 38.2506C167.872 38.5662 168.004 38.8418 168.273 39.0773C168.542 39.3127 168.877 39.428 169.282 39.428C169.688 39.428 170.043 39.3127 170.307 39.0823C170.571 38.8518 170.703 38.5763 170.703 38.2506C170.703 37.9249 170.571 37.6644 170.307 37.439C170.043 37.2135 169.703 37.0983 169.282 37.0983C168.861 37.0983 168.532 37.2085 168.268 37.439ZM173.492 43.937V34.0121H174.73V43.937H173.492Z" fill="#7D4717"/>
<path d="M183.068 40.941L182.266 41.6975C181.784 41.3669 181.303 40.8859 180.821 40.2546C180.334 39.6234 179.989 39.0121 179.776 38.4059C179.614 39.0121 179.264 39.6534 178.721 40.3448C178.178 41.0362 177.646 41.5272 177.128 41.8178L176.327 41.1063C176.86 40.7356 177.321 40.3148 177.712 39.8338C178.102 39.3578 178.396 38.8769 178.599 38.4059C178.802 37.9299 178.944 37.4891 179.036 37.0732C179.122 36.6574 179.167 36.2616 179.167 35.8858V34.2676H180.415V35.8858C180.415 36.2466 180.451 36.6173 180.522 36.9931C180.593 37.3688 180.724 37.7847 180.902 38.2356C181.085 38.6865 181.358 39.1474 181.724 39.6183C182.089 40.0893 182.535 40.5302 183.063 40.936L183.068 40.941ZM183.981 43.937V34.0121H185.203V37.2887H186.714V38.3859H185.203V43.937H183.981Z" fill="#7D4717"/>
<path d="M70.894 21.0109L69.342 20.6752V19.8936C61.9524 19.8085 57.4182 14.2272 55.6734 11.5568C53.452 11.4516 49.0649 10.645 45.9152 6.24114C44.0032 3.57076 40.9804 3.16996 39.3472 3.16996C38.7589 3.16996 38.3836 3.22507 38.3785 3.22507L38.0184 3.28018L37.6431 3.22507C37.6431 3.22507 37.2729 3.17497 36.6896 3.17497C35.0565 3.17497 32.0286 3.57577 30.1216 6.24615C26.972 10.645 22.5848 11.4566 20.3684 11.5619C18.6187 14.2322 14.0844 19.8135 6.6948 19.8986V20.6802L5.14282 21.0159V21.071C5.14282 22.7544 4.26539 24.3326 3.36768 25.5049C4.27046 26.6873 5.14282 28.2555 5.14282 29.9338V29.9639L6.84188 30.2194L6.78102 31.1062C14.12 31.2315 18.6288 36.7826 20.3684 39.438C22.5899 39.5432 26.972 40.3548 30.1216 44.7537C32.0337 47.4241 35.0565 47.8249 36.6896 47.8249C37.2779 47.8249 37.6532 47.7748 37.6583 47.7698L38.0184 47.7147L38.3988 47.7698C38.3988 47.7698 38.769 47.8199 39.3523 47.8199C40.9854 47.8199 44.0133 47.4191 45.9203 44.7487C49.0699 40.3448 53.4571 39.5382 55.6785 39.433C57.4232 36.7676 61.9625 31.1814 69.3471 31.1012V30.3196L70.8991 29.989C70.8991 29.989 70.8991 29.9539 70.8991 29.9338C70.8991 28.2505 71.7765 26.6723 72.6691 25.5049C71.7664 24.3225 70.8991 22.7494 70.8991 21.076C70.8991 21.056 70.8991 21.0359 70.8991 21.0209L70.894 21.0109Z" fill="url(#paint0_linear_565_297)"/>
<path d="M73.3437 21.0711C73.3437 18.9819 71.7917 18.6463 71.7917 18.6463C71.7917 17.3086 69.5043 17.3937 69.5043 17.3937C61.2677 17.3937 57.0226 9.03189 57.0226 9.03189C57.0226 9.03189 51.474 9.7834 47.8882 4.76831C44.2974 -0.251804 38.0184 0.750214 38.0184 0.750214C38.0184 0.750214 31.7344 -0.251804 28.1487 4.7633C24.5578 9.77839 19.0092 9.02688 19.0092 9.02688C19.0092 9.02688 14.7641 17.3887 6.52744 17.3887C6.52744 17.3887 4.24005 17.3035 4.24005 18.6412C4.24005 18.6412 2.68807 18.9769 2.68807 21.0661C2.68807 23.1553 0 25.5001 0 25.5001C0 25.5001 2.69314 27.8398 2.69314 29.929C2.69314 32.0182 4.24512 32.3539 4.24512 32.3539C4.24512 33.6915 6.53252 33.6064 6.53252 33.6064C14.7692 33.6064 19.0143 41.9682 19.0143 41.9682C19.0143 41.9682 24.5629 41.2167 28.1537 46.2318C31.7446 51.2469 38.0235 50.2449 38.0235 50.2449C38.0235 50.2449 44.3024 51.2469 47.8933 46.2318C51.4841 41.2167 57.0276 41.9682 57.0276 41.9682C57.0276 41.9682 61.2677 33.6064 69.5094 33.6064C69.5094 33.6064 71.7968 33.6915 71.7968 32.3539C71.7968 32.3539 73.3488 32.0182 73.3488 29.929C73.3488 27.8398 76.0419 25.5001 76.0419 25.5001C76.0419 25.5001 73.3488 23.1603 73.3488 21.0661L73.3437 21.0711ZM71.8729 29.929C71.8729 30.6003 71.6294 30.8158 71.4621 30.8859L70.3209 31.0112V32.0182C70.1434 32.0633 69.8695 32.1084 69.5551 32.1084H69.5043C62.0285 32.1084 57.6109 38.1405 56.206 40.4251C54.3852 40.4251 49.8662 40.9261 46.7014 45.345C44.5357 48.3711 41.163 48.827 39.3422 48.827C38.6727 48.827 38.2416 48.7669 38.2416 48.7669L38.0134 48.7318L37.7902 48.7619C37.7902 48.7619 37.354 48.827 36.6795 48.827C34.8638 48.827 31.491 48.3761 29.3253 45.345C26.1605 40.9261 21.6415 40.4301 19.8207 40.4251C18.4158 38.1405 13.9982 32.1033 6.52237 32.1033H6.44629C6.16734 32.1033 5.91882 32.0683 5.74131 32.0232L5.84275 31.0312L4.56972 30.8809C4.40235 30.8158 4.1589 30.5953 4.1589 29.924C4.1589 28.2155 3.04817 26.5822 2.08959 25.495C3.02788 24.4279 4.1589 22.7896 4.1589 21.0611C4.1589 20.3898 4.40742 20.1743 4.56972 20.1042L5.70581 19.9789V18.9719C5.88332 18.9268 6.1572 18.8817 6.47165 18.8817H6.52744C14.0033 18.8817 18.4209 12.8496 19.8258 10.56C21.6466 10.56 26.1656 10.059 29.3304 5.64006C31.4961 2.60896 34.8688 2.15805 36.6845 2.15805C37.3591 2.15805 37.7851 2.22318 37.7851 2.22318L38.0134 2.25825L38.2314 2.22318C38.2314 2.22318 38.6676 2.15805 39.3422 2.15805C41.1579 2.15805 44.5307 2.60896 46.7014 5.64006C49.8662 10.059 54.3852 10.555 56.206 10.56C57.6109 12.8446 62.0285 18.8817 69.5043 18.8817H69.5855C69.8797 18.8817 70.1485 18.9218 70.3209 18.9719V19.8537L71.4874 20.1042C71.4874 20.1042 71.8729 20.2395 71.8729 21.0561C71.8729 22.7696 72.9887 24.3978 73.9422 25.485C73.0039 26.5522 71.8729 28.1955 71.8729 29.9139V29.929Z" fill="url(#paint1_linear_565_297)"/>
<path d="M24.7861 21.547V22.2434C24.4057 22.2584 24.1419 22.3085 23.9898 22.3987C23.8376 22.4889 23.7616 22.6341 23.7616 22.8446V29.5581H22.8892L18.5376 23.6712V28.1302C18.5376 28.3607 18.6035 28.516 18.7404 28.5962C18.8723 28.6813 19.1462 28.7264 19.557 28.7414V29.4529H16.3871V28.7414C16.7827 28.7264 17.0465 28.6813 17.1834 28.6062C17.3203 28.531 17.3913 28.3807 17.3913 28.1603V23.6462C17.3913 23.3907 17.3913 23.2053 17.3812 23.1001C17.3761 22.9949 17.3558 22.8746 17.3254 22.7444C17.295 22.6141 17.2443 22.5289 17.1631 22.4788C17.087 22.4337 16.9856 22.3836 16.8639 22.3386C16.7421 22.2935 16.5697 22.2534 16.3567 22.2283V21.542H18.2992L22.6204 27.3737V22.8596C22.6204 22.6392 22.5646 22.4838 22.448 22.3987C22.3313 22.3135 22.0676 22.2634 21.6517 22.2484V21.5369H24.8013L24.7861 21.547Z" fill="white"/>
<path d="M31.8765 25.4999C31.8765 25.8957 31.841 26.2815 31.7649 26.6673C31.6888 27.048 31.5621 27.4238 31.3845 27.7895C31.207 28.1553 30.9889 28.4759 30.7303 28.7515C30.4716 29.027 30.147 29.2475 29.7463 29.4178C29.3507 29.5831 28.9044 29.6683 28.4124 29.6683C27.9205 29.6683 27.464 29.5932 27.0684 29.4378C26.6728 29.2825 26.3431 29.0771 26.0794 28.8166C25.8207 28.5561 25.5976 28.2455 25.4201 27.8897C25.2426 27.534 25.1158 27.1533 25.0397 26.7575C24.9636 26.3617 24.9281 25.9408 24.9281 25.5049C24.9281 25.0039 24.994 24.5179 25.1208 24.047C25.2527 23.576 25.4454 23.1352 25.7092 22.7193C25.9678 22.3035 26.333 21.9728 26.7996 21.7223C27.2662 21.4718 27.8038 21.3466 28.4124 21.3466C28.8841 21.3466 29.3203 21.4267 29.7261 21.587C30.1318 21.7474 30.497 21.9878 30.8266 22.3135C31.1563 22.6342 31.4099 23.07 31.5976 23.6211C31.7852 24.1672 31.8765 24.7985 31.8765 25.5049V25.4999ZM30.5426 26.7074C30.6136 26.3366 30.6491 25.9308 30.6491 25.4899C30.6491 25.049 30.6136 24.6382 30.5375 24.2674C30.4615 23.8967 30.3397 23.551 30.1724 23.2404C30.005 22.9297 29.7717 22.6843 29.4725 22.5039C29.1732 22.3235 28.8233 22.2333 28.4124 22.2333C27.9813 22.2333 27.6111 22.3285 27.3017 22.5139C26.9923 22.6993 26.759 22.9598 26.5967 23.2855C26.4344 23.6161 26.3229 23.9568 26.2569 24.3175C26.191 24.6733 26.1555 25.064 26.1555 25.4899C26.1555 26.0761 26.2265 26.6072 26.3685 27.0781C26.5105 27.549 26.759 27.9499 27.109 28.2755C27.464 28.6012 27.9002 28.7665 28.4226 28.7665C28.8385 28.7665 29.1986 28.6763 29.4927 28.4909C29.792 28.3106 30.0202 28.0601 30.1876 27.7394C30.3499 27.4188 30.4665 27.0781 30.5375 26.7074H30.5426Z" fill="white"/>
<path d="M39.0125 27.023C39.0125 27.7845 38.7285 28.3757 38.1655 28.8066C37.5975 29.2374 36.7302 29.4529 35.5637 29.4529H32.2822V28.7665C32.759 28.7314 33.043 28.6663 33.1393 28.5661C33.2357 28.4709 33.2864 28.2154 33.2864 27.8096V23.1802C33.2864 22.7694 33.2306 22.5239 33.1191 22.4337C33.0075 22.3436 32.7184 22.2834 32.2467 22.2434V21.547H36.0861C36.7657 21.547 37.349 21.7023 37.8409 22.0129C38.3329 22.3235 38.5763 22.7995 38.5763 23.4358C38.5763 23.8015 38.4597 24.1322 38.2264 24.4278C37.9931 24.7234 37.7091 24.9688 37.3845 25.1542C37.8764 25.3246 38.272 25.5801 38.5662 25.9208C38.8654 26.2615 39.0125 26.6272 39.0125 27.023ZM37.349 23.5209C37.349 23.1552 37.207 22.8796 36.928 22.6943C36.649 22.5089 36.2839 22.4137 35.8274 22.4137H35.0565C34.8232 22.4137 34.6609 22.4588 34.5645 22.544C34.4682 22.6291 34.4174 22.7644 34.4174 22.9498V24.8286H35.7666C36.1926 24.8286 36.5578 24.7033 36.8722 24.4578C37.1867 24.2123 37.3439 23.8967 37.3439 23.5159L37.349 23.5209ZM37.7395 27.1031C37.7395 26.1713 37.0751 25.7053 35.7513 25.7053H34.4225V27.7996C34.4225 28.1202 34.4834 28.3306 34.6 28.4258C34.7167 28.521 34.9246 28.5711 35.2137 28.5711H35.9948C37.1562 28.5711 37.7344 28.0801 37.7344 27.0981L37.7395 27.1031Z" fill="white"/>
<path d="M46.1689 27.3036L45.6566 29.4529H39.6415V28.7665C40.1182 28.7314 40.4022 28.6663 40.4986 28.5661C40.595 28.4709 40.6457 28.2104 40.6457 27.7845V23.1953C40.6457 22.7895 40.5899 22.5339 40.4834 22.4438C40.3769 22.3486 40.0827 22.2885 39.606 22.2484V21.5369H42.7657V22.2484C42.3042 22.2784 42.0252 22.3386 41.9289 22.4237C41.8325 22.5139 41.7818 22.7694 41.7818 23.1903V27.6292C41.7666 27.9849 41.8173 28.2354 41.9289 28.3707C42.0404 28.506 42.2332 28.5761 42.507 28.5761H43.9221C44.2518 28.5761 44.5155 28.521 44.7133 28.4108C44.9162 28.3006 45.0734 28.1553 45.185 27.9799C45.2965 27.8046 45.4284 27.529 45.5755 27.1583L46.1689 27.2985V27.3036Z" fill="white"/>
<path d="M53.2137 27.2635L52.7471 29.4579H46.742V28.7615C47.2188 28.7314 47.5028 28.6663 47.5992 28.5611C47.6956 28.4559 47.7463 28.2054 47.7463 27.8046V23.2253C47.7463 22.7945 47.6905 22.5339 47.5789 22.4337C47.4673 22.3386 47.1782 22.2684 46.7065 22.2233V21.547H52.9449L53.0565 23.5911L52.5341 23.6462C52.3971 23.1802 52.2703 22.8596 52.1435 22.6893C52.0167 22.5089 51.6414 22.4187 51.0176 22.4187H49.2881C49.1258 22.4187 49.0142 22.4388 48.9635 22.4838C48.9128 22.5289 48.8874 22.6141 48.8874 22.7444V24.9137H50.7082C51.1647 24.9137 51.4436 24.8686 51.5552 24.7785C51.6668 24.6883 51.7581 24.4428 51.8342 24.042H52.3718V26.6823H51.8342C51.7581 26.2514 51.6668 25.9959 51.5552 25.9107C51.4436 25.8256 51.1596 25.7805 50.7082 25.7805H48.8874V27.7244C48.8874 28.0701 48.9686 28.2955 49.1258 28.4108C49.283 28.526 49.5468 28.5811 49.9119 28.5811H50.7488C51.1292 28.5761 51.4132 28.5511 51.6009 28.511C51.7885 28.4709 51.9457 28.3857 52.0776 28.2454C52.3008 28.015 52.4884 27.6643 52.6457 27.1833L53.2137 27.2585V27.2635Z" fill="white"/>
<path d="M59.3024 26.9702C59.3024 27.6516 58.9931 28.2228 58.3743 28.6837C57.7555 29.1446 56.9897 29.3751 56.0717 29.3751C55.4681 29.3751 54.7682 29.2198 53.9618 28.9142L53.48 26.7648L54.1038 26.6145C54.185 26.865 54.2763 27.0805 54.3726 27.2658C54.469 27.4512 54.6009 27.6366 54.7682 27.837C54.9356 28.0324 55.1537 28.1877 55.4225 28.2929C55.6913 28.3981 56.0007 28.4532 56.3506 28.4532C56.8578 28.4532 57.2636 28.338 57.5679 28.0975C57.8722 27.862 58.0243 27.5314 58.0243 27.1105C58.0243 26.9452 57.9838 26.7949 57.9026 26.6596C57.8215 26.5243 57.6896 26.3941 57.507 26.2738C57.3244 26.1536 57.1571 26.0534 56.9998 25.9732C56.8426 25.8931 56.6245 25.7929 56.3506 25.6726C56.2188 25.6025 56.026 25.5173 55.7877 25.4171C55.5442 25.3169 55.3363 25.2317 55.1638 25.1566C54.9863 25.0864 54.7987 24.9913 54.5958 24.866C54.3929 24.7458 54.2205 24.6155 54.0886 24.4852C53.9567 24.355 53.8401 24.1846 53.7539 23.9792C53.6626 23.7738 53.6169 23.5534 53.6169 23.3079C53.6169 22.6365 53.8857 22.0904 54.4183 21.6696C54.9559 21.2487 55.6862 21.0433 56.6194 21.0433C57.1824 21.0433 57.8468 21.1886 58.6076 21.4842L58.8663 23.4281L58.2627 23.5333C58.1866 23.2978 58.1106 23.0974 58.0345 22.9421C57.9584 22.7868 57.8468 22.6215 57.7048 22.4511C57.5628 22.2808 57.3802 22.1555 57.1571 22.0704C56.9339 21.9852 56.6702 21.9401 56.376 21.9401C55.8637 21.9401 55.4681 22.0503 55.1943 22.2758C54.9204 22.4962 54.7834 22.7918 54.7834 23.1576C54.7834 23.353 54.8697 23.5333 55.0421 23.7037C55.2145 23.874 55.387 24.0043 55.5696 24.0945C55.7471 24.1846 56.0058 24.2949 56.3405 24.4351C56.6752 24.5704 56.8933 24.6656 56.9998 24.7157C57.2484 24.8309 57.4309 24.9161 57.5527 24.9712C57.6744 25.0313 57.8468 25.1165 58.0649 25.2368C58.283 25.357 58.4504 25.4672 58.567 25.5724C58.6837 25.6776 58.8054 25.8029 58.9423 25.9482C59.0793 26.0935 59.1706 26.2538 59.2264 26.4191C59.2822 26.5895 59.3126 26.7698 59.3126 26.9702H59.3024Z" fill="white"/>
<path fill-rule="evenodd" clip-rule="evenodd" d="M38.0184 12.629C37.9931 12.629 37.9677 12.629 37.9474 12.614C36.3751 11.5118 35.3303 11.8675 33.6719 12.4286C33.3828 12.5238 33.0785 12.629 32.7285 12.7392C32.1402 12.9246 31.1562 13.11 30.6592 12.5789C30.5831 12.604 30.5425 12.639 30.5375 12.6791C30.5223 12.7442 30.5578 12.8394 30.6237 12.9647C30.6592 13.0298 30.6034 13.11 30.5273 13.105C29.8274 13.0749 29.1174 12.9346 28.7065 12.3184C28.6355 12.8094 28.8232 13.2653 29.2137 13.5759C29.3862 13.7112 29.5992 13.8164 29.8376 13.8915C30.4563 14.0769 31.283 14.0168 32.2061 13.5759C32.2517 13.5559 32.3126 13.5759 32.3329 13.621C32.3532 13.6611 32.338 13.7112 32.3075 13.7412C32.0235 13.9567 31.7344 14.132 31.4504 14.2723C30.7201 14.628 30.0049 14.7282 29.3659 14.613C28.7218 14.4928 28.1639 14.1521 27.748 13.616C27.6617 13.5058 27.5857 13.3855 27.5096 13.2603C27.4487 13.4356 27.4284 13.611 27.4437 13.7763C27.469 14.0268 27.5755 14.2673 27.7378 14.4777C27.9052 14.6882 28.1334 14.8735 28.4022 15.0088C28.7015 15.1591 29.0413 15.2493 29.4065 15.2543C29.513 15.2543 29.9136 15.2092 29.8629 15.2894C29.8071 15.3846 29.442 15.5048 29.3557 15.5248C27.6161 15.9407 26.8959 15.3495 26.1453 14.7383C25.6888 14.3675 25.2273 13.9867 24.502 13.8414C24.6998 14.623 25.1055 15.2743 25.6837 15.7102C26.267 16.1511 27.0176 16.3766 27.895 16.3064C29.4977 16.1761 31.0294 15.099 32.3583 14.0519C33.3473 13.2803 33.8798 12.634 34.9398 12.2482C35.0869 12.1981 35.2898 12.2182 34.9094 12.3835C34.1993 12.6891 33.7479 13.3605 32.8198 14.1521C31.278 15.4697 29.4977 16.9928 27.6415 17.3285C25.5569 17.7042 23.8629 16.592 23.5383 14.5629C21.6516 16.8876 24.0962 18.7764 26.835 18.3004C28.2196 18.0599 29.7615 17.3285 31.0954 16.0108C31.1512 15.9557 31.354 15.7904 31.4403 15.7954C31.496 15.7954 31.4301 15.8605 31.3033 16.0609C31.0802 16.4116 30.7961 17.093 30.8824 17.4988C30.9381 17.7694 31.1004 17.9597 31.3693 18.0449C31.3439 17.3134 31.4758 16.6721 31.7446 16.0659C32.0337 15.4296 32.4698 14.8334 33.0531 14.2172C33.0886 14.1771 33.1495 14.1771 33.19 14.2172C33.2255 14.2473 33.2306 14.2974 33.2053 14.3374C32.7488 15.114 32.4749 15.6952 32.4242 16.2513C32.3836 16.7222 32.5003 17.1832 32.8097 17.7393C32.8452 17.4237 32.9618 17.1281 33.0734 16.8425C33.2509 16.3866 33.4284 15.9357 33.256 15.4296C33.2408 15.3795 33.2661 15.3244 33.3168 15.3094C33.3574 15.2994 33.4031 15.3094 33.4233 15.3445C33.5552 15.5298 33.7175 15.6451 33.895 15.7002C34.174 15.7904 34.4986 15.7403 34.7369 15.5749C34.8282 15.5098 34.9043 15.4347 34.9601 15.3445C34.7775 15.3595 34.5899 15.3445 34.4225 15.2944C33.9812 15.1491 33.7834 14.7733 33.8088 14.3324C33.8291 14.0118 33.9711 13.6661 34.179 13.3555C34.387 13.0499 34.671 12.7743 34.9753 12.5989C35.2289 12.4537 35.4977 12.3735 35.7564 12.3885C35.9897 12.4035 36.2078 12.4887 36.3954 12.6691C36.5425 12.8144 36.6642 13.0148 36.7606 13.2853C36.8975 13.2402 36.999 13.1501 37.0345 13.0098C37.0903 12.7893 36.9686 12.5288 36.8316 12.3685C36.72 12.2432 36.791 12.2332 36.8418 12.2382C37.0903 12.2482 37.5467 12.5539 37.6482 12.6791C37.8358 12.9196 37.8866 13.2202 37.7902 13.5058C37.7293 13.6911 37.6076 13.8515 37.4554 13.9667C37.2323 14.137 37.0091 14.1821 36.7809 14.1421C36.5628 14.102 36.3447 13.9817 36.1266 13.8164C35.802 13.5709 35.4876 13.5058 35.2238 13.5509C35.1021 13.5759 34.9855 13.616 34.8891 13.6811C34.7877 13.7463 34.7014 13.8214 34.6304 13.9166C34.529 14.0469 34.4681 14.1972 34.4479 14.3475C34.884 13.9767 35.4571 14.2523 36.0708 14.5479C36.2382 14.628 36.3853 14.7032 36.5729 14.7383C36.8113 14.7783 37.0649 14.7383 37.283 14.633C37.5011 14.5278 37.6887 14.3525 37.8003 14.112C37.846 14.0118 37.8866 13.9016 37.9018 13.7813C37.9119 13.7312 37.9576 13.6962 38.0133 13.7012C38.0641 13.6962 38.1148 13.7262 38.1249 13.7813C38.1452 13.9016 38.1807 14.0118 38.2314 14.112C38.3481 14.3475 38.5307 14.5228 38.7488 14.633C38.9669 14.7383 39.2154 14.7783 39.4588 14.7383C39.6465 14.7082 39.7936 14.628 39.9609 14.5479C40.5695 14.2523 41.1477 13.9767 41.5839 14.3475C41.5636 14.1972 41.4977 14.0469 41.3963 13.9166C41.3253 13.8264 41.239 13.7463 41.1376 13.6811C41.0412 13.621 40.9246 13.5759 40.8029 13.5509C40.5391 13.5058 40.2247 13.5709 39.9001 13.8164C39.6769 13.9817 39.4639 14.102 39.2458 14.1421C39.0176 14.1821 38.7944 14.132 38.5712 13.9667C38.4191 13.8515 38.3024 13.6861 38.2365 13.5058C38.1401 13.2152 38.1909 12.9196 38.3785 12.6791C38.4749 12.5539 38.9364 12.2482 39.1849 12.2382C39.2407 12.2382 39.3016 12.2432 39.1951 12.3685C39.0581 12.5338 38.9364 12.7893 38.9922 13.0098C39.0277 13.1501 39.1291 13.2402 39.2661 13.2853C39.3574 13.0148 39.4842 12.8144 39.6313 12.6691C39.8189 12.4887 40.037 12.4035 40.2703 12.3885C40.534 12.3735 40.8029 12.4537 41.0514 12.5989C41.3608 12.7743 41.6397 13.0499 41.8527 13.3555C42.0607 13.6661 42.2027 14.0118 42.223 14.3324C42.2483 14.7733 42.0455 15.1491 41.6093 15.2944C41.4419 15.3495 41.2542 15.3645 41.0717 15.3445C41.1275 15.4347 41.2035 15.5098 41.2948 15.5749C41.5332 15.7403 41.8578 15.7954 42.1367 15.7002C42.3092 15.6401 42.4766 15.5298 42.6034 15.3445C42.6287 15.3144 42.6693 15.2994 42.7099 15.3094C42.7606 15.3244 42.791 15.3795 42.7707 15.4296C42.6034 15.9307 42.7809 16.3816 42.9533 16.8425C43.0649 17.1331 43.1765 17.4237 43.217 17.7393C43.5264 17.1832 43.6431 16.7222 43.5974 16.2513C43.5467 15.6952 43.2728 15.114 42.8164 14.3374C42.791 14.3024 42.7961 14.2473 42.8316 14.2172C42.8722 14.1821 42.933 14.1821 42.9685 14.2172C43.5467 14.8334 43.993 15.4296 44.2771 16.0659C44.5459 16.6721 44.6777 17.3134 44.6524 18.0449C44.9212 17.9597 45.0835 17.7694 45.1393 17.4988C45.2255 17.093 44.9465 16.4116 44.7183 16.0609C44.5915 15.8655 44.5205 15.8004 44.5814 15.7954C44.6676 15.7904 44.8705 15.9557 44.9263 16.0108C46.2601 17.3285 47.807 18.0599 49.1917 18.3004C51.9304 18.7764 54.3751 16.8876 52.4883 14.5629C52.1637 16.587 50.4698 17.7042 48.3852 17.3285C46.5289 16.9928 44.7487 15.4697 43.2069 14.1521C42.2838 13.3605 41.8274 12.6941 41.1173 12.3835C40.7369 12.2182 40.9398 12.1981 41.0869 12.2482C42.152 12.629 42.6845 13.2753 43.6684 14.0519C45.0023 15.099 46.5289 16.1761 48.1316 16.3064C49.0091 16.3766 49.7597 16.1511 50.343 15.7102C50.9212 15.2743 51.3269 14.623 51.5247 13.8414C50.8045 13.9867 50.3328 14.3675 49.8764 14.7383C49.1308 15.3545 48.4055 15.9457 46.671 15.5248C46.5847 15.5048 46.2196 15.3846 46.1638 15.2894C46.1131 15.2092 46.5087 15.2593 46.6202 15.2543C46.9803 15.2493 47.3252 15.1591 47.6245 15.0088C47.8882 14.8735 48.1164 14.6932 48.2838 14.4777C48.4461 14.2673 48.5526 14.0268 48.578 13.7763C48.5932 13.611 48.578 13.4356 48.512 13.2603C48.441 13.3855 48.3599 13.5058 48.2737 13.616C47.8578 14.1521 47.2999 14.4928 46.6557 14.613C46.0218 14.7332 45.3016 14.628 44.5712 14.2723C44.2872 14.132 43.9981 13.9567 43.7141 13.7412C43.6786 13.7112 43.6684 13.6661 43.6887 13.621C43.7141 13.5759 43.7699 13.5559 43.8155 13.5759C44.7335 14.0118 45.5653 14.0719 46.1841 13.8915C46.4275 13.8214 46.6355 13.7112 46.8079 13.5759C47.1984 13.2653 47.3861 12.8144 47.3151 12.3184C46.9093 12.9346 46.1942 13.0749 45.4943 13.105C45.4182 13.11 45.3675 13.0348 45.3979 12.9647C45.4639 12.8394 45.4994 12.7442 45.4841 12.6791C45.474 12.639 45.4385 12.604 45.3624 12.5789C44.8603 13.11 43.8815 12.9246 43.2931 12.7392C42.9432 12.629 42.6389 12.5238 42.3498 12.4286C40.6913 11.8625 39.6465 11.5118 38.0742 12.614C38.0539 12.629 38.0286 12.634 38.0032 12.629H38.0184Z" fill="white"/>
<path fill-rule="evenodd" clip-rule="evenodd" d="M38.0184 38.3759C38.0438 38.3759 38.0691 38.3759 38.0894 38.3959C39.6617 39.4981 40.7065 39.1424 42.365 38.5813C42.649 38.4861 42.9584 38.3809 43.3083 38.2706C43.8966 38.0853 44.8806 37.8999 45.3776 38.431C45.4537 38.4059 45.4943 38.3708 45.4993 38.3308C45.5146 38.2656 45.4791 38.1704 45.4131 38.0452C45.3776 37.9801 45.4334 37.8999 45.5095 37.9099C46.2043 37.935 46.9195 38.0803 47.3303 38.6965C47.4013 38.2005 47.2136 37.7496 46.8231 37.439C46.6506 37.3037 46.4427 37.1935 46.1993 37.1233C45.5805 36.938 44.7538 36.9981 43.8307 37.439C43.7851 37.464 43.7293 37.439 43.7039 37.3939C43.6836 37.3538 43.6988 37.3037 43.7293 37.2786C44.0133 37.0632 44.3024 36.8879 44.5864 36.7476C45.3168 36.3919 46.037 36.2866 46.6709 36.4069C47.3151 36.5271 47.873 36.8678 48.2888 37.4039C48.3751 37.5141 48.4511 37.6344 48.5272 37.7596C48.5881 37.5843 48.6084 37.4139 48.5932 37.2436C48.5678 36.9931 48.4613 36.7526 48.299 36.5422C48.1316 36.3267 47.9034 36.1464 47.6397 36.0111C47.3404 35.8608 46.9955 35.7706 46.6354 35.7656C46.5238 35.7656 46.1283 35.8107 46.179 35.7305C46.2348 35.6403 46.5999 35.5151 46.6862 35.4951C48.4207 35.0792 49.146 35.6704 49.8966 36.2816C50.3531 36.6574 50.8146 37.0382 51.5399 37.1784C51.3421 36.3969 50.9363 35.7456 50.3582 35.3097C49.7749 34.8688 49.0243 34.6433 48.1468 34.7135C46.5441 34.8437 45.0175 35.9209 43.6836 36.968C42.6946 37.7396 42.1621 38.3859 41.1021 38.7716C40.955 38.8268 40.7521 38.8017 41.1325 38.6364C41.8375 38.3257 42.2939 37.6594 43.2221 36.8678C44.7639 35.5502 46.5441 34.0271 48.4004 33.6914C50.4849 33.3157 52.1789 34.4329 52.5035 36.457C54.3903 34.1373 51.9456 32.2435 49.2068 32.7195C47.8222 32.9599 46.2804 33.6914 44.9465 35.0091C44.8907 35.0642 44.6878 35.2295 44.6016 35.2245C44.5458 35.2245 44.6118 35.1594 44.7386 34.959C44.9668 34.6083 45.2458 33.9269 45.1595 33.5211C45.1037 33.2505 44.9414 33.0601 44.6726 32.975C44.698 33.7064 44.5661 34.3477 44.2973 34.954C44.0133 35.5902 43.572 36.1864 42.9888 36.8027C42.9533 36.8428 42.8924 36.8428 42.8569 36.8077C42.8214 36.7776 42.8163 36.7275 42.8417 36.6875C43.2982 35.9109 43.572 35.3297 43.6228 34.7736C43.6633 34.3026 43.5467 33.8417 43.2373 33.2856C43.1967 33.6012 43.0852 33.8918 42.9736 34.1824C42.7961 34.6383 42.6236 35.0892 42.791 35.5902C42.8062 35.6403 42.7808 35.6955 42.7301 35.7105C42.6895 35.7205 42.649 35.7105 42.6236 35.6754C42.4968 35.49 42.3294 35.3748 42.157 35.3197C41.873 35.2245 41.5535 35.2796 41.3151 35.445C41.2238 35.5051 41.1477 35.5852 41.0919 35.6754C41.2745 35.6604 41.4622 35.6754 41.6295 35.7255C42.0657 35.8708 42.2737 36.2516 42.2432 36.6875C42.2229 37.0081 42.086 37.3538 41.873 37.6644C41.66 37.975 41.381 38.2456 41.0767 38.4209C40.8231 38.5662 40.5543 38.6464 40.2956 38.6314C40.0623 38.6163 39.8443 38.5312 39.6566 38.3508C39.5095 38.2055 39.3827 38.0051 39.2914 37.7396C39.1545 37.7847 39.053 37.8748 39.0175 38.0151C38.9618 38.2356 39.0835 38.4911 39.2204 38.6614C39.332 38.7867 39.261 38.7967 39.2103 38.7917C38.9618 38.7817 38.5002 38.4761 38.4039 38.3508C38.2162 38.1103 38.1655 37.8097 38.2618 37.5241C38.3227 37.3388 38.4444 37.1784 38.5966 37.0582C38.8197 36.8879 39.0429 36.8428 39.2711 36.8828C39.4892 36.9229 39.7073 37.0382 39.9254 37.2085C40.25 37.454 40.5594 37.5191 40.8282 37.474C40.9499 37.454 41.0666 37.4089 41.1629 37.3438C41.2644 37.2786 41.3506 37.1985 41.4165 37.1133C41.518 36.983 41.5839 36.8327 41.6042 36.6824C41.168 37.0532 40.5898 36.7726 39.9812 36.477C39.8138 36.3969 39.6667 36.3167 39.4791 36.2866C39.2356 36.2466 38.9871 36.2866 38.769 36.3919C38.5509 36.4971 38.3684 36.6724 38.2517 36.9129C38.2061 37.0131 38.1655 37.1233 38.1452 37.2436C38.1401 37.2937 38.0894 37.3287 38.0336 37.3237C37.9829 37.3338 37.9322 37.2987 37.922 37.2436C37.9017 37.1233 37.8662 37.0131 37.8206 36.9129C37.7039 36.6724 37.5214 36.4971 37.3033 36.3919C37.0852 36.2866 36.8316 36.2466 36.5932 36.2866C36.4056 36.3167 36.2585 36.3919 36.0911 36.477C35.4774 36.7726 34.9043 37.0482 34.4681 36.6824C34.4884 36.8327 34.5543 36.983 34.6558 37.1133C34.7268 37.2035 34.813 37.2837 34.9144 37.3438C35.0108 37.4039 35.1275 37.449 35.2492 37.474C35.5129 37.5191 35.8274 37.454 36.152 37.2085C36.37 37.0432 36.5881 36.9229 36.8062 36.8828C37.0345 36.8428 37.2576 36.8879 37.4808 37.0582C37.6329 37.1734 37.7547 37.3388 37.8155 37.5241C37.9119 37.8147 37.8612 38.1103 37.6735 38.3508C37.5771 38.4761 37.1156 38.7817 36.8671 38.7917C36.8113 38.7917 36.7454 38.7867 36.8569 38.6614C36.9939 38.4961 37.1156 38.2406 37.0598 38.0151C37.0243 37.8748 36.9229 37.7847 36.7859 37.7396C36.6946 38.0101 36.5679 38.2105 36.4208 38.3508C36.2331 38.5312 36.015 38.6163 35.7817 38.6314C35.5231 38.6464 35.2492 38.5662 35.0007 38.4209C34.6963 38.2456 34.4123 37.97 34.2044 37.6644C33.9914 37.3538 33.8544 37.0081 33.8341 36.6875C33.8037 36.2466 34.0066 35.8708 34.4478 35.7255C34.6152 35.6704 34.8029 35.6604 34.9854 35.6754C34.9297 35.5852 34.8536 35.5101 34.7623 35.445C34.5239 35.2746 34.1993 35.2245 33.9204 35.3197C33.7428 35.3748 33.5805 35.49 33.4487 35.6754C33.4233 35.7105 33.3827 35.7205 33.3422 35.7105C33.2914 35.6955 33.2661 35.6403 33.2813 35.5902C33.4487 35.0842 33.2762 34.6383 33.0987 34.1824C32.9871 33.8918 32.8705 33.6012 32.835 33.2856C32.5256 33.8417 32.409 34.3026 32.4495 34.7736C32.5002 35.3297 32.7741 35.9109 33.2306 36.6875C33.2509 36.7225 33.2458 36.7776 33.2154 36.8077C33.1748 36.8428 33.1139 36.8428 33.0784 36.8027C32.5002 36.1864 32.059 35.5902 31.7699 34.954C31.496 34.3477 31.3692 33.7064 31.3946 32.975C31.1258 33.0601 30.9686 33.2505 30.9077 33.5211C30.8215 33.9269 31.1055 34.6083 31.3287 34.959C31.4554 35.1594 31.5265 35.2195 31.4656 35.2245C31.3794 35.2245 31.1765 35.0642 31.1207 35.0091C29.7868 33.6914 28.2399 32.9599 26.8553 32.7195C24.1165 32.2435 21.6719 34.1323 23.5586 36.457C23.8832 34.4329 25.5772 33.3157 27.6617 33.6914C29.518 34.0271 31.2982 35.5502 32.8401 36.8678C33.7631 37.6594 34.2196 38.3257 34.9297 38.6364C35.31 38.8017 35.1072 38.8218 34.9601 38.7716C33.895 38.3909 33.3675 37.7446 32.3785 36.968C31.0446 35.9209 29.518 34.8487 27.9153 34.7135C27.043 34.6433 26.2873 34.8688 25.704 35.3097C25.1309 35.7456 24.7201 36.3969 24.5223 37.1784C25.2475 37.0382 25.7091 36.6574 26.1655 36.2816C26.9162 35.6704 27.6364 35.0792 29.376 35.4951C29.4622 35.5151 29.8274 35.6353 29.8832 35.7305C29.9339 35.8107 29.5332 35.7656 29.4267 35.7656C29.0615 35.7706 28.7217 35.8608 28.4225 36.0111C28.1537 36.1464 27.9305 36.3267 27.7581 36.5422C27.5958 36.7526 27.4893 36.9931 27.4639 37.2436C27.4487 37.4139 27.4639 37.5843 27.5299 37.7596C27.6009 37.6344 27.682 37.5141 27.7682 37.4039C28.1841 36.8678 28.742 36.5271 29.3861 36.4069C30.0252 36.2866 30.7403 36.3919 31.4707 36.7476C31.7547 36.8828 32.0387 37.0582 32.3278 37.2786C32.3633 37.3037 32.3734 37.3538 32.3532 37.3939C32.3278 37.439 32.272 37.464 32.2264 37.439C31.3084 36.9981 30.4817 36.938 29.8578 37.1233C29.6194 37.1935 29.4064 37.3037 29.234 37.439C28.8435 37.7496 28.6558 38.2005 28.7268 38.6965C29.1325 38.0803 29.8477 37.935 30.5476 37.9099C30.6186 37.8999 30.6744 37.9801 30.6389 38.0452C30.5729 38.1704 30.5374 38.2706 30.5527 38.3308C30.5628 38.3708 30.5983 38.4059 30.6744 38.431C31.1714 37.8949 32.1554 38.0853 32.7437 38.2706C33.0936 38.3809 33.398 38.4861 33.6871 38.5813C35.3455 39.1424 36.3853 39.4981 37.9626 38.3959C37.9829 38.3809 38.0083 38.3759 38.0336 38.3759H38.0184Z" fill="white"/>
<defs>
<linearGradient id="paint0_linear_565_297" x1="16.9652" y1="13.1551" x2="60.7413" y2="39.4628" gradientUnits="userSpaceOnUse">
<stop stop-color="#7D4717"/>
<stop offset="0.28" stop-color="#B8834C"/>
<stop offset="0.44" stop-color="#A06B36"/>
<stop offset="0.63" stop-color="#8C5725"/>
<stop offset="0.81" stop-color="#804B1A"/>
<stop offset="1" stop-color="#7D4717"/>
</linearGradient>
<linearGradient id="paint1_linear_565_297" x1="16.9501" y1="13.1452" x2="60.7563" y2="39.4733" gradientUnits="userSpaceOnUse">
<stop stop-color="#7D4717"/>
<stop offset="0.28" stop-color="#B8834C"/>
<stop offset="0.44" stop-color="#A06B36"/>
<stop offset="0.63" stop-color="#8C5725"/>
<stop offset="0.81" stop-color="#804B1A"/>
<stop offset="1" stop-color="#7D4717"/>
</linearGradient>
</defs>
</svg>
